<svg width="25" height="19" viewBox="0 0 25 19" fill="none" xmlns="http://www.w3.org/2000/svg">
<path fill-rule="evenodd" clip-rule="evenodd" d="M24.5016 9.00126C24.5016 8.73605 24.4094 8.48169 24.2453 8.29416C24.0812 8.10662 23.8586 8.00126 23.6266 8.00126H2.98881L8.49606 1.70926C8.57742 1.61629 8.64195 1.50591 8.68598 1.38443C8.73001 1.26295 8.75267 1.13275 8.75267 1.00126C8.75267 0.869775 8.73001 0.739575 8.68598 0.618096C8.64195 0.496617 8.57742 0.386239 8.49606 0.293263C8.41471 0.200287 8.31813 0.126535 8.21183 0.0762167C8.10554 0.0258985 7.99162 0 7.87656 0C7.76151 0 7.64759 0.0258985 7.54129 0.0762167C7.435 0.126535 7.33842 0.200287 7.25706 0.293263L0.257064 8.29326C0.175578 8.38615 0.110928 8.49651 0.0668172 8.618C0.0227059 8.73949 0 8.86973 0 9.00126C0 9.1328 0.0227059 9.26304 0.0668172 9.38453C0.110928 9.50602 0.175578 9.61637 0.257064 9.70926L7.25706 17.7093C7.33842 17.8022 7.435 17.876 7.54129 17.9263C7.64759 17.9766 7.76151 18.0025 7.87656 18.0025C7.99162 18.0025 8.10554 17.9766 8.21183 17.9263C8.31813 17.876 8.41471 17.8022 8.49606 17.7093C8.57742 17.6163 8.64195 17.5059 8.68598 17.3844C8.73001 17.263 8.75267 17.1327 8.75267 17.0013C8.75267 16.8698 8.73001 16.7396 8.68598 16.6181C8.64195 16.4966 8.57742 16.3862 8.49606 16.2933L2.98881 10.0013H23.6266C23.8586 10.0013 24.0812 9.89591 24.2453 9.70837C24.4094 9.52083 24.5016 9.26648 24.5016 9.00126Z" fill="black"/>
</svg>
