<svg width="24" height="24" viewBox="0 0 24 24" fill="none" xmlns="http://www.w3.org/2000/svg">
<path fill-rule="evenodd" clip-rule="evenodd" d="M0.00150824 16.5322C0.00150824 16.7228 0.090403 16.9056 0.248637 17.0404C0.406871 17.1752 0.621482 17.2509 0.845258 17.2509H20.7459L15.4354 21.7733C15.2769 21.9082 15.1879 22.0913 15.1879 22.2822C15.1879 22.473 15.2769 22.6561 15.4354 22.791C15.5938 22.926 15.8087 23.0018 16.0328 23.0018C16.2568 23.0018 16.4717 22.926 16.6301 22.791L23.3801 17.041C23.4587 16.9743 23.5211 16.895 23.5636 16.8076C23.6061 16.7203 23.628 16.6267 23.628 16.5322C23.628 16.4376 23.6061 16.344 23.5636 16.2567C23.5211 16.1694 23.4587 16.09 23.3801 16.0233L16.6301 10.2733C16.4717 10.1383 16.2568 10.0625 16.0328 10.0625C15.8087 10.0625 15.5938 10.1383 15.4354 10.2733C15.2769 10.4082 15.1879 10.5913 15.1879 10.7822C15.1879 10.973 15.2769 11.1561 15.4354 11.291L20.7459 15.8134H0.845258C0.621482 15.8134 0.406871 15.8891 0.248637 16.0239C0.090403 16.1587 0.00150824 16.3415 0.00150824 16.5322ZM23.6265 6.46966C23.6265 6.66028 23.5376 6.8431 23.3794 6.97789C23.2211 7.11268 23.0065 7.18841 22.7828 7.18841H2.88207L8.19263 11.7108C8.27108 11.7776 8.33331 11.8569 8.37577 11.9443C8.41822 12.0316 8.44007 12.1252 8.44007 12.2197C8.44007 12.3142 8.41822 12.4077 8.37577 12.4951C8.33331 12.5824 8.27108 12.6617 8.19263 12.7285C8.11419 12.7954 8.02105 12.8484 7.91856 12.8845C7.81606 12.9207 7.7062 12.9393 7.59526 12.9393C7.48432 12.9393 7.37446 12.9207 7.27196 12.8845C7.16946 12.8484 7.07633 12.7954 6.99788 12.7285L0.247883 6.97853C0.169308 6.91177 0.106967 6.83245 0.0644309 6.74513C0.021895 6.65781 0 6.5642 0 6.46966C0 6.37512 0.021895 6.28151 0.0644309 6.19418C0.106967 6.10686 0.169308 6.02755 0.247883 5.96078L6.99788 0.210783C7.15632 0.0758209 7.3712 0 7.59526 0C7.81932 0 8.0342 0.0758209 8.19263 0.210783C8.35107 0.345745 8.44007 0.528793 8.44007 0.719658C8.44007 0.910523 8.35107 1.09357 8.19263 1.22853L2.88207 5.75091H22.7828C23.0065 5.75091 23.2211 5.82663 23.3794 5.96143C23.5376 6.09622 23.6265 6.27903 23.6265 6.46966Z" fill="black"/>
</svg>
